<svg width="80" height="81" viewBox="0 0 80 81" fill="none" xmlns="http://www.w3.org/2000/svg">
<path fill-rule="evenodd" clip-rule="evenodd" d="M40.0445 78.2047C42.1939 81.0573 45.0481 80.4499 46.4583 77.2981C49.0728 80.0743 52.0919 79.0148 52.9502 75.3948C55.9967 77.6939 58.8846 76.5226 59.1332 72.6653C62.5408 74.3418 64.9759 72.2816 64.5294 68.6141C68.2186 69.7138 70.4437 67.3624 69.2765 63.7166C73.0944 64.106 74.9044 61.4167 73.0638 58.0413C76.7611 57.7203 78.2396 54.8943 75.885 51.909C79.546 50.8841 80.0673 47.7339 77.2485 45.2883C80.9562 43.5322 80.7125 40.3426 77.7384 38.5415C80.8187 36.2962 80.2202 33.1517 76.7023 31.8525C79.3844 29.0876 78.4697 25.9527 74.6236 25.3252C76.6291 22.2289 75.412 19.2653 71.586 19.2886C73.0091 15.8086 70.9457 13.396 67.279 14.1088C68.1092 10.3946 65.7474 8.17759 62.1555 9.61272C62.2697 5.94766 59.7132 4.03871 56.46 6.01202C55.8945 2.27858 52.8738 1.26336 50.0904 3.78048C49.0044 0.511205 45.9169 -0.853942 43.3515 2.56979C41.5448 -0.637545 38.3398 -1.01242 36.5813 2.41211C34.1527 -0.464589 31.0178 0.137137 29.9591 3.77404C27.0534 1.33979 23.9064 2.26007 23.5452 6.17049C20.2888 4.3814 17.3775 5.61945 17.668 9.51217C13.834 8.25642 11.785 10.5869 12.715 14.0653C9.00406 13.5087 6.78781 15.8963 8.47473 19.4061C4.86276 19.5517 2.95782 22.1508 5.1596 25.2809C1.52108 26.1047 0.522767 29.1254 3.25145 31.7519C-0.235827 33.2015 -0.931676 36.4073 2.37219 38.5455C-0.638053 40.5526 -1.00246 43.7953 2.55319 45.3229C-0.0918281 47.9108 0.5107 51.0538 4.23529 51.8639C2.13488 54.7897 2.91439 57.9512 6.76689 58.1434C5.20787 61.4867 6.87549 64.1961 10.6323 63.6659C9.65727 67.2514 11.6716 69.8304 15.3745 68.5747C15.0945 72.2534 17.5159 74.4689 20.9195 72.5462C21.325 76.0754 23.9732 77.9755 26.9625 75.5694C28.0349 79.0776 31.0717 80.0646 33.5228 77.1509C35.1438 80.3502 38.1146 81.0517 40.0445 78.2047Z" fill="#CF2333"/>
<path fill-rule="evenodd" clip-rule="evenodd" d="M29.1504 27.991C25.1517 27.9525 22.1197 26.3495 20.5897 25.3272L20.5903 25.3275C20.5194 25.2801 20.4585 25.2192 20.4111 25.1483C20.3637 25.0774 20.3307 24.9978 20.3141 24.9141C20.2975 24.8305 20.2975 24.7443 20.3141 24.6607C20.3308 24.577 20.3638 24.4974 20.4112 24.4265C20.4586 24.3556 20.5195 24.2947 20.5904 24.2473C20.6613 24.1999 20.7409 24.167 20.8246 24.1504C20.9082 24.1337 20.9944 24.1337 21.078 24.1504C21.1617 24.167 21.2412 24.2 21.3122 24.2474C22.8665 25.2867 26.113 26.9809 30.3745 26.6511C35.6592 26.2439 38.9302 22.8937 40.0051 21.7928C40.1132 21.6819 40.2015 21.5917 40.2693 21.5267C40.391 21.4096 40.5268 21.2735 40.6772 21.1227L40.6775 21.1223L40.6777 21.1221L40.6817 21.1181C42.1736 19.6222 45.2786 16.5092 50.4685 16.1133C52.6331 15.9474 57.0499 16.6168 61.6269 18.4753C61.7865 18.5401 61.9138 18.6656 61.9809 18.8243C62.0479 18.983 62.0492 19.1618 61.9844 19.3215C61.9196 19.4811 61.794 19.6084 61.6353 19.6755C61.4766 19.7425 61.2978 19.7438 61.1382 19.679C57.0923 18.0361 53.4022 17.4418 51.3875 17.3935C48.3801 20.0547 49.2698 23.7164 50.328 26.0447C51.3048 25.0973 52.3699 25.2343 53.4917 25.3801L53.4965 25.3808C54.0108 25.4473 54.5032 25.5111 54.966 25.4526C54.1454 26.2315 53.1125 26.2987 52.7026 26.2909H52.6901C52.5252 26.291 52.3664 26.3538 52.2461 26.4666C52.1258 26.5794 52.0529 26.7338 52.0422 26.8984C51.9672 28.0469 52.6631 28.5785 53.2222 29.0056C53.4178 29.1484 53.604 29.3035 53.7798 29.47C53.6769 29.4982 53.5683 29.5285 53.454 29.561C53.2634 29.6199 53.07 29.6693 52.8744 29.7087C52.138 29.7799 51.6618 29.2794 51.2787 28.8765C50.9799 28.5622 50.641 28.2058 50.1471 28.3493C50.0405 28.3803 49.9436 28.4381 49.8656 28.5171C49.7877 28.5962 49.7313 28.6939 49.7019 28.801C49.3769 29.9836 48.6341 30.5194 48.0915 30.9107L48.0913 30.9109C47.9554 31.0049 47.8246 31.1061 47.6994 31.214C47.6118 31.2945 47.5321 31.3831 47.4612 31.4786C47.4467 31.2685 47.4546 31.0575 47.4848 30.8491C47.5738 30.2599 47.8323 29.7093 48.2289 29.2646C48.3294 29.1523 48.3878 29.0086 48.394 28.858C48.4002 28.7075 48.3539 28.5594 48.263 28.4393C48.1721 28.3191 48.0422 28.2343 47.8956 28.1994C47.749 28.1644 47.5948 28.1815 47.4595 28.2478C46.711 28.6116 45.8721 28.7474 45.0471 28.6382C44.9316 28.6219 44.8172 28.599 44.7044 28.5696C45.0166 28.4523 45.3144 28.2997 45.5921 28.1149C45.8704 27.9286 46.149 27.7035 46.4438 27.4652L46.4439 27.4652L46.4459 27.4635C47.1705 26.878 47.9786 26.2262 48.9181 26.0624C48.2448 24.432 47.9496 22.8771 48.0418 21.4264C48.1172 20.0158 48.6185 18.6611 49.4795 17.5412C45.4263 18.2047 42.9707 20.664 41.6025 22.0376C41.4432 22.1974 41.2994 22.3414 41.1708 22.465C41.1162 22.5175 41.047 22.5884 40.963 22.6744L40.963 22.6745L40.9628 22.6747L40.9357 22.7024C40.203 23.4699 39.4107 24.1782 38.5663 24.8207C35.616 28.4174 36.9359 31.5839 38.605 35.5871C39.6326 38.0517 40.7828 40.8123 41.0084 44.0277C41.8649 42.9446 42.7213 43.0427 43.7053 43.1565C44.1805 43.2117 44.6689 43.268 45.144 43.1723C44.3916 44.0198 43.3665 44.1739 42.9571 44.2008C42.7904 44.2117 42.6344 44.2864 42.5213 44.4094C42.4083 44.5324 42.347 44.6942 42.3501 44.8612C42.3717 46.0106 43.1087 46.4815 43.7014 46.8602L43.7034 46.8614C43.9102 46.9873 44.1088 47.1262 44.298 47.2774C44.1979 47.314 44.0922 47.3534 43.981 47.3954C43.7961 47.4702 43.6075 47.5357 43.416 47.5914C42.6882 47.7247 42.1719 47.2661 41.7565 46.8971L41.7561 46.8967C41.4318 46.6085 41.0639 46.2825 40.5838 46.4666C40.4802 46.5064 40.3886 46.5721 40.3176 46.6574C40.2466 46.7426 40.1986 46.8447 40.1783 46.9538C39.9542 48.1597 39.2589 48.7563 38.7512 49.1917C38.6237 49.2967 38.5019 49.4084 38.3863 49.5264C38.3058 49.6136 38.2337 49.7083 38.1711 49.8093C38.1389 49.6012 38.129 49.3902 38.1416 49.18C38.1805 48.5854 38.3918 48.0149 38.7497 47.5384C38.8404 47.418 38.8865 47.2699 38.88 47.1194C38.8735 46.9688 38.8149 46.8252 38.7141 46.7131C38.6134 46.601 38.4768 46.5275 38.3278 46.505C38.1788 46.4826 38.0266 46.5126 37.8973 46.59C37.1821 47.0154 36.3577 47.2213 35.5264 47.1822C35.41 47.1758 35.294 47.1626 35.1791 47.1427C35.4805 46.9994 35.7645 46.8223 36.0256 46.6146C36.3075 46.389 36.623 46.0752 36.9881 45.7121L36.9882 45.7121L36.9882 45.7121L36.9891 45.7111C37.7464 44.9584 38.7323 43.979 39.6688 43.6001C39.3832 40.83 38.3803 38.4243 37.4053 36.0859C36.0353 32.8007 34.7276 29.6623 36.1084 26.357C34.6938 27.0796 33.1731 27.5722 31.6035 27.816C28.7445 29.3195 29.0341 30.9408 29.4362 33.1761C29.6645 34.4453 29.9146 35.8362 29.5637 37.3074C30.5543 37.4886 31.3223 38.1611 32.0682 38.8152C32.4056 39.1251 32.7625 39.4129 33.1369 39.6769C33.5316 39.9386 33.9611 40.1436 34.4128 40.286C34.1882 40.3625 33.9571 40.4184 33.7223 40.4528C32.7565 40.5806 31.7744 40.4217 30.8981 39.9958C30.7628 39.9296 30.6086 39.9125 30.462 39.9474C30.3155 39.9823 30.1856 40.0672 30.0946 40.1873C30.0037 40.3075 29.9574 40.4555 29.9636 40.6061C29.9698 40.7566 30.0282 40.9004 30.1287 41.0126C30.5964 41.5372 30.9011 42.1867 31.0056 42.8816C31.054 43.2148 31.054 43.5532 31.0056 43.8863C30.8936 43.7016 30.7569 43.5332 30.5992 43.3856C30.4581 43.2643 30.3107 43.1505 30.1576 43.0447L30.1574 43.0445C29.5231 42.587 28.6545 41.9605 28.2727 40.5705C28.2433 40.4634 28.1869 40.3657 28.109 40.2866C28.031 40.2076 27.9341 40.1498 27.8275 40.1188C27.7554 40.0975 27.6805 40.0866 27.6053 40.0863C27.2063 40.0863 26.8999 40.4085 26.6247 40.698C26.1708 41.176 25.6038 41.7698 24.7145 41.6832C24.4842 41.6377 24.2565 41.5798 24.0324 41.51C23.8412 41.4557 23.665 41.4064 23.502 41.3639C23.7365 41.1213 23.9923 40.9003 24.2665 40.7035C24.9226 40.2024 25.6662 39.6341 25.5839 38.3675C25.5739 38.2004 25.4995 38.0438 25.3763 37.9305C25.2531 37.8172 25.0908 37.7561 24.9235 37.76C24.4326 37.7701 23.194 37.6877 22.2205 36.7355C22.164 36.6797 22.1108 36.6206 22.0613 36.5585C22.662 36.7087 23.3645 36.6855 24.1037 36.6612L24.104 36.6612C25.4063 36.6183 26.8686 36.5707 28.1819 37.4054C28.6313 36.0432 28.3915 34.7068 28.1574 33.4062C27.8398 31.6402 27.4894 29.6907 29.1504 27.991ZM32.7076 47.5647C33.2958 47.9106 33.9291 48.1731 34.5894 48.3448C32.6706 51.0837 32.0535 54.3879 32.889 57.3982C30.7535 59.2054 27.9828 60.1599 25.0868 60.1599C23.6532 60.1574 22.2289 59.9291 20.8664 59.4835C17.7206 58.4598 15.1255 56.3944 13.5587 53.6682C12.0043 50.9629 11.6506 47.9304 12.5627 45.1276C13.8088 41.2985 17.2405 38.5462 21.5572 37.8855C22.3034 38.5073 23.2138 38.8995 24.1783 39.0146C24.0576 39.2185 23.8339 39.3987 23.4779 39.6705L23.4774 39.671C22.9285 40.0903 22.2455 40.6121 21.8042 41.6258C21.7548 41.7395 21.7388 41.8649 21.7583 41.9873C21.7778 42.1097 21.832 42.224 21.9143 42.3166C21.9966 42.4092 22.1038 42.4764 22.223 42.5101C22.3423 42.5439 22.4687 42.5428 22.5874 42.507H22.5899C22.7902 42.507 23.3607 42.6689 23.6747 42.7581L23.6775 42.7589C23.9751 42.8546 24.2797 42.927 24.5885 42.9754C25.9176 43.1052 26.8088 42.3619 27.352 41.8151C27.9322 43.0413 28.8236 43.684 29.398 44.0983L29.3981 44.0983C29.5376 44.1987 29.6581 44.2859 29.7295 44.3502C29.9117 44.5145 30.123 44.9719 30.2772 45.3059L30.2773 45.306L30.2803 45.3124L30.2803 45.3124C30.3723 45.5111 30.459 45.6984 30.5479 45.8516C30.605 45.9499 30.6868 46.0315 30.7852 46.0882C30.8837 46.145 30.9953 46.1749 31.1089 46.1751H31.1097C31.2232 46.1751 31.3348 46.1453 31.4332 46.0888C31.5317 46.0322 31.6136 45.9509 31.6708 45.8528C32.2262 44.8999 32.445 43.7879 32.2921 42.6957C32.2429 42.3589 32.158 42.0282 32.0387 41.7094C32.4209 41.7739 32.8083 41.8024 33.1959 41.7945C34.1833 42.8112 34.9868 43.9916 35.5704 45.2832C35.4389 45.4078 35.3192 45.5162 35.2139 45.6004C34.2887 46.3402 33.0561 46.3618 33.0462 46.3618C32.9049 46.3622 32.7675 46.4086 32.655 46.4941C32.5425 46.5796 32.4609 46.6994 32.4226 46.8354C32.3843 46.9714 32.3914 47.1162 32.4429 47.2478C32.4943 47.3794 32.5873 47.4907 32.7076 47.5647ZM14.4275 52.1151C14.5965 52.1488 14.7719 52.114 14.9151 52.0184C14.9861 51.971 15.0471 51.9101 15.0945 51.8391C15.1419 51.7682 15.1749 51.6886 15.1916 51.6049C15.2082 51.5212 15.2082 51.435 15.1916 51.3513C15.1749 51.2676 15.142 51.188 15.0945 51.1171C13.4387 48.6362 15.0335 45.9857 15.1059 45.8682C15.1971 45.722 15.2264 45.5455 15.1875 45.3777C15.1486 45.2099 15.0446 45.0644 14.8984 44.9732C14.7522 44.8821 14.5758 44.8527 14.408 44.8916C14.2401 44.9305 14.0946 45.0345 14.0035 45.1807C13.9162 45.3214 11.8844 48.6477 14.0143 51.8388C14.1099 51.982 14.2586 52.0814 14.4275 52.1151ZM63.3912 32.8202C62.3194 29.5262 59.3713 27.1542 55.6595 26.5736C55.0393 27.0826 54.2927 27.4139 53.4991 27.5322C53.6546 27.6965 53.8263 27.8445 54.0116 27.974C54.4975 28.3452 55.1024 28.8077 55.4956 29.7106C55.5445 29.8231 55.5606 29.9472 55.542 30.0685C55.5234 30.1897 55.4707 30.3033 55.3902 30.3959C55.3097 30.4885 55.2047 30.5564 55.0871 30.5918C54.9696 30.6272 54.8445 30.6285 54.7263 30.5957C54.5506 30.6011 54.0723 30.737 53.8098 30.8116C53.546 30.8972 53.2757 30.9611 53.0014 31.0027C51.8708 31.1136 51.0977 30.5248 50.6081 30.0485C50.0853 31.0761 49.3119 31.6339 48.8524 31.9653L48.8521 31.9655L48.8474 31.969L48.8472 31.9691C48.7344 32.0505 48.6284 32.1269 48.5706 32.1792C48.4248 32.3108 48.2374 32.7163 48.1136 32.9847C48.0318 33.1617 47.9545 33.3289 47.8742 33.4672C47.8171 33.5655 47.7353 33.6471 47.6368 33.7038C47.5384 33.7606 47.4267 33.7905 47.3131 33.7906H47.3124C47.1989 33.7906 47.0874 33.7608 46.989 33.7043C46.8905 33.6477 46.8086 33.5664 46.7514 33.4683C46.2581 32.622 46.0637 31.6345 46.1993 30.6643C46.2355 30.4116 46.2942 30.1626 46.3747 29.9204C46.095 29.9602 45.8127 29.9783 45.5302 29.9745C42.9909 32.6121 42.0611 36.2103 43.1064 39.4217C43.3982 40.3185 43.8346 41.1616 44.3983 41.9176C44.6155 41.9429 44.8357 41.9199 45.0431 41.8502C45.2335 41.7303 45.4116 41.592 45.5748 41.4372C45.7841 41.2387 46.0151 41.0644 46.2633 40.9175C46.373 40.8607 46.4967 40.8363 46.6198 40.8473C46.7429 40.8582 46.8603 40.9041 46.9583 40.9795C47.0562 41.0549 47.1306 41.1566 47.1728 41.2728C47.2149 41.389 47.223 41.5148 47.1962 41.6354C47.0885 42.1061 46.9375 42.5658 46.7449 43.0086C49.1212 43.3185 51.2486 44.3032 52.879 45.7979C54.0114 45.7673 55.1335 45.5732 56.2104 45.2216C61.8031 43.4017 65.0243 37.8385 63.3912 32.8202ZM43.8543 45.368C44.6351 45.1834 45.3511 44.7905 45.9263 44.2312C49.674 44.4972 52.8108 46.6124 54.1567 49.8041C55.1448 52.1481 55.0607 54.783 53.9201 57.2234C52.769 59.6864 50.6829 61.6548 48.0463 62.7664C42.6274 65.0505 36.5506 62.9536 34.5002 58.0907C33.1883 54.9787 33.8117 51.3153 36.1197 48.473C36.4015 48.4531 36.6813 48.4114 36.9567 48.3483C36.8968 48.5961 36.8591 48.8488 36.8443 49.1033C36.7905 50.0817 37.0675 51.0497 37.6306 51.8515C37.6905 51.9368 37.7701 52.0064 37.8626 52.0544C37.955 52.1025 38.0577 52.1276 38.1619 52.1276C38.1805 52.1276 38.199 52.1268 38.2176 52.1252C38.3308 52.1155 38.4395 52.0762 38.5328 52.0113C38.6262 51.9465 38.7008 51.8582 38.7494 51.7555C38.8167 51.6128 38.8787 51.4425 38.9444 51.262L38.9468 51.2553C39.0477 50.9772 39.2004 50.557 39.3346 50.4136C39.3888 50.3559 39.4899 50.2689 39.5972 50.177L39.5993 50.1752C40.0295 49.8057 40.7518 49.1852 41.1855 48.1189C41.7134 48.5521 42.5323 49.0729 43.6508 48.868C43.9205 48.8036 44.1844 48.7171 44.44 48.6095C44.6951 48.5132 45.1603 48.3375 45.335 48.3172C45.4556 48.34 45.5802 48.3281 45.6943 48.283C45.8085 48.2379 45.9075 48.1614 45.9799 48.0623C46.0524 47.9633 46.0952 47.8457 46.1036 47.7232C46.112 47.6008 46.0855 47.4785 46.0272 47.3705C45.5594 46.5035 44.9178 46.0941 44.4023 45.7652L44.4022 45.7652C44.2067 45.6516 44.0231 45.5185 43.8543 45.368Z" fill="white"/>
</svg>
